# xmcd CD database file
#
# Track frame offsets:
#	150
#	23946
#	49634
#	68004
#
# Disc length: 1160 seconds
#
# Revision: 1
# Processed by: cddbd v1.5PL3 Copyright (c) Steve Scherf et al.
# Submitted via: CDex 1.40Release
#
DISCID=2b048604
DTITLE=John Lee Hooker Jr. - Blues With A Vengeance
DYEAR=2004
DGENRE=Blues
TTITLE0=Goin' Down To Baghdad
TTITLE1=Suspicious
TTITLE2=Blues Ain't Nothin' But A Pimp
TTITLE3=Keep It Real
EXTD=YEAR: 2004 ID3G: 0
EXTT0=
EXTT1=
EXTT2=
EXTT3=
PLAYORDER=
